<svg version="1.1" id="Layer_1" xmlns="http://www.w3.org/2000/svg" xmlns:xlink="http://www.w3.org/1999/xlink" x="0px" y="0px" width="100%" viewBox="0 0 1912 1912" enable-background="new 0 0 1912 1912" xml:space="preserve">
  <path fill="#BBB8B3" opacity="1.000000" stroke="none" d="M1636.059448,1122.817505 C1619.791382,1118.116699 1603.523193,1113.415894 1586.358398,1108.455933 C1587.462769,1115.960205 1588.503540,1123.487671 1589.691162,1130.991943 C1591.406616,1141.830811 1593.291016,1152.643188 1594.985352,1163.485229 C1596.417480,1172.650391 1597.738525,1181.834229 1598.992310,1191.025513 C1599.499268,1194.741211 1599.943237,1198.495483 1599.995239,1202.238037 C1600.402588,1231.634888 1601.478271,1261.050903 1600.805908,1290.425659 C1600.249023,1314.759521 1595.838379,1338.738647 1590.407349,1362.546997 C1585.902954,1382.293091 1580.678711,1401.821655 1572.725952,1420.346069 C1567.429199,1432.683594 1560.039795,1444.230103 1552.713745,1455.566406 C1538.288208,1477.888916 1519.791504,1496.836304 1500.529175,1514.911499 C1487.306030,1527.319702 1472.305298,1537.713623 1456.538696,1546.637573 C1438.952637,1556.591431 1421.249756,1566.635132 1402.689453,1574.495117 C1380.592163,1583.853027 1357.716675,1591.520508 1334.820557,1598.794922 C1318.917358,1603.847656 1302.479248,1607.310669 1286.154907,1610.917236 C1269.321167,1614.636475 1252.370972,1617.862427 1235.406250,1620.943848 C1220.923462,1623.574585 1206.380249,1625.925293 1191.802368,1627.960693 C1181.765381,1629.362305 1171.635620,1630.160767 1161.526489,1630.968628 C1143.386963,1632.418213 1125.234863,1633.718018 1107.081787,1634.990112 C1096.250610,1635.749268 1085.415894,1636.625244 1074.567871,1636.944580 C1046.268433,1637.777954 1017.961243,1638.356323 989.656189,1638.992676 C970.915771,1639.414062 952.174683,1639.977051 933.432007,1640.060303 C921.867615,1640.111572 910.301758,1639.288574 898.732666,1639.032959 C891.220398,1638.866821 883.694702,1639.218750 876.186279,1638.982300 C859.862427,1638.468018 843.540710,1637.827148 827.227905,1637.037598 C817.727356,1636.577759 808.232239,1635.876953 798.758423,1635.021729 C785.437256,1633.819336 772.143616,1632.313477 758.827332,1631.052612 C750.532715,1630.267212 742.194946,1629.899902 733.917725,1628.976318 C722.650208,1627.718750 711.396301,1626.280273 700.183960,1624.603027 C689.114624,1622.947021 678.065796,1621.094360 667.078857,1618.962646 C656.385254,1616.887939 645.766296,1614.417358 635.141663,1612.000977 C619.290222,1608.395874 603.265381,1605.364746 587.677429,1600.838989 C570.216614,1595.769653 552.929749,1589.897705 535.990906,1583.289062 C517.821167,1576.200439 499.681213,1568.742798 482.387573,1559.786865 C466.329895,1551.471069 451.187347,1541.296875 436.070892,1531.292847 C428.267090,1526.128418 421.119781,1519.858887 414.169708,1513.545166 C404.492279,1504.753418 395.000244,1495.719482 385.930939,1486.305420 C372.804596,1472.679810 361.733795,1457.467041 352.379242,1440.970215 C342.900452,1424.254150 335.280212,1406.785400 329.754883,1388.394043 C324.254822,1370.086670 319.259766,1351.654419 317.013397,1332.611450 C315.557129,1320.265991 313.586090,1307.919556 313.153168,1295.527954 C312.278229,1270.483765 311.662476,1245.395142 312.190033,1220.351196 C312.483398,1206.424927 315.157959,1192.533569 317.006714,1178.659424 C319.193207,1162.251099 321.552490,1145.864136 324.028412,1129.496948 C325.083405,1122.522827 326.623962,1115.621948 328.139709,1107.659058 C322.772980,1109.016479 317.889191,1110.176514 313.047424,1111.491211 C300.489197,1114.901367 288.096924,1119.169922 275.349762,1121.549316 C267.010040,1123.105957 258.166931,1122.002197 249.549164,1122.025146 C230.566940,1122.075806 215.438034,1112.264404 201.322571,1101.493530 C192.870972,1095.044434 185.568787,1086.800293 180.294632,1076.955933 C171.247726,1060.069458 166.110931,1042.173950 163.949585,1023.261292 C163.457214,1018.952881 162.391586,1014.709961 161.400101,1009.425781 C159.739471,1010.592346 158.122406,1011.391357 156.942230,1012.612549 C149.780457,1020.023376 142.489548,1027.131592 132.673874,1031.174683 C124.976662,1034.345337 116.874054,1035.167969 109.121979,1033.598999 C87.431763,1029.208862 76.682838,1013.271667 70.003181,993.844177 C65.875015,981.837585 62.103813,969.721436 61.948940,956.787781 C61.750473,940.213501 60.024181,923.551331 61.219971,907.091492 C62.981461,882.845032 66.553925,858.707031 75.543083,835.785522 C75.926781,834.807129 75.784843,833.622559 76.014755,831.191284 C69.301102,833.716492 63.450706,836.120911 57.467480,838.129700 C38.666637,844.441528 20.616766,842.685364 9.688788,824.996826 C6.405655,819.682556 5.002550,812.805420 4.207880,806.460205 C3.282972,799.075012 3.137152,791.372681 4.152050,784.014709 C5.746655,772.453857 7.978184,760.898071 11.040992,749.639648 C17.528879,725.791199 26.656406,702.834534 39.005047,681.445129 C49.719063,662.887024 61.205036,644.693054 73.552376,627.186340 C82.704613,614.209778 93.755196,602.567810 104.052658,590.409668 C105.117279,589.152710 106.813248,588.430420 108.216263,587.460022 C108.171356,586.956177 108.126442,586.452271 108.081535,585.948425 C103.721649,585.299011 99.304527,584.905212 95.014328,583.944641 C87.168671,582.187805 78.756088,581.385010 71.725655,577.883789 C55.567692,569.836853 52.571606,558.380676 61.915085,542.750122 C71.804794,526.205872 85.896729,513.395325 100.911263,501.606934 C109.860870,494.580322 118.445358,486.851624 128.182022,481.115753 C146.278885,470.454773 164.834885,460.481384 183.705856,451.257172 C197.268433,444.627716 211.416977,438.979645 225.729065,434.154144 C245.067337,427.633942 264.857239,422.566498 285.006622,418.940002 C305.004822,415.340729 325.153748,415.680695 345.277649,416.142242 C356.329712,416.395721 367.405396,417.698456 378.367645,419.252991 C391.325989,421.090576 404.363953,422.966431 417.014130,426.205383 C429.061462,429.290039 440.853271,433.661133 452.395203,438.356964 C466.459717,444.079041 480.486603,450.086182 493.895844,457.169983 C506.276642,463.710480 517.901611,471.709198 529.713928,479.292358 C552.334045,493.813751 571.431335,512.482666 590.015259,531.634338 C599.698486,541.613464 608.846985,552.141174 616.103699,564.177551 C620.059265,570.738403 624.977722,576.716919 628.967224,583.259705 C634.557861,592.428162 639.589783,601.935669 645.071899,611.172791 C646.795532,614.077148 649.198608,616.578308 651.725525,619.822266 C652.901489,618.177917 653.610474,617.186462 655.089600,616.081604 C664.397766,617.000793 672.911621,618.343567 681.477966,619.014954 C732.304688,622.997864 781.203918,635.601807 829.296631,651.829529 C868.589355,665.088013 906.981384,680.620605 944.499268,698.269226 C953.604858,702.552673 962.153320,702.526123 971.355652,698.614807 C1015.468872,679.865173 1060.007446,662.233215 1106.142334,648.953552 C1139.928223,639.228394 1174.073853,631.098083 1208.884155,625.971375 C1224.129028,623.726196 1239.910034,624.698547 1254.458130,618.252380 C1255.438232,617.818054 1256.754639,618.142761 1258.101318,618.433716 C1261.877563,620.999695 1264.287231,619.968933 1265.946411,616.194275 C1266.775146,614.308777 1268.008667,612.604248 1269.013306,610.792419 C1273.694702,602.351013 1277.978882,593.660461 1283.116821,585.507568 C1291.741211,571.822693 1300.905518,558.478027 1309.891357,545.457153 C1309.963379,577.938293 1309.986572,609.952454 1309.715698,642.142456 C1305.588989,645.124939 1301.756470,647.931458 1297.669678,650.995178 C1293.262817,656.958252 1293.573853,663.018433 1295.886841,669.294434 C1299.208130,678.307007 1299.335205,687.116577 1296.593872,696.604370 C1290.502319,717.687500 1285.522705,739.089966 1279.924438,760.318665 C1278.271729,766.585388 1280.421387,772.008301 1282.544678,778.190491 C1285.406006,776.669006 1288.060181,775.642395 1290.258545,774.004089 C1294.178101,771.083252 1297.484009,770.694946 1300.859863,774.817749 C1303.442993,777.972473 1306.419556,778.461243 1310.521240,776.676331 C1313.631836,775.322693 1318.136353,774.539368 1320.997559,775.808594 C1326.493896,778.246582 1330.140747,777.003662 1333.425537,772.760498 C1335.889404,769.577454 1338.389526,769.857361 1341.604370,771.700806 C1345.663330,774.028259 1350.009766,775.854248 1355.109375,778.320862 C1355.109375,775.265137 1355.081909,773.459595 1355.113647,771.655151 C1355.378296,756.616760 1350.480103,742.492798 1347.482544,728.022888 C1343.436523,708.492065 1333.796509,689.845032 1338.155029,668.615479 C1340.754517,656.363220 1335.991577,647.023926 1324.194946,640.208984 C1324.135010,602.127380 1324.140625,564.488159 1324.146240,526.848999 C1326.016846,526.144714 1328.267456,525.881653 1329.689819,524.656860 C1334.797607,520.258728 1339.473267,515.358032 1344.590332,510.971649 C1355.569824,501.559937 1366.377441,491.895416 1377.883911,483.162476 C1396.101440,469.336060 1415.900513,457.834534 1436.568237,448.180756 C1460.330200,437.081512 1484.881470,428.016235 1510.805176,422.803009 C1529.338623,419.075989 1547.761108,415.567963 1566.778931,415.937378 C1581.192139,416.217346 1595.651978,415.269562 1610.027832,416.043762 C1637.497070,417.523102 1664.059448,423.990417 1689.785889,433.498047 C1707.642090,440.097137 1725.547485,446.841827 1742.636353,455.154846 C1757.727417,462.496002 1771.759033,472.031006 1786.186523,480.716919 C1807.798462,493.728119 1826.225098,510.582489 1843.294556,528.948059 C1851.588013,537.871338 1857.599487,547.845764 1857.191528,560.966980 C1856.944458,568.919128 1852.727905,573.844849 1846.772095,576.847595 C1840.711914,579.902893 1833.760132,581.386902 1827.050171,582.900269 C1820.502075,584.377136 1813.766113,585.021423 1805.964111,586.205627 C1811.831177,593.252563 1816.743042,599.624084 1822.144531,605.549194 C1836.513916,621.311279 1849.184937,638.384888 1859.800781,656.790039 C1869.426392,673.478760 1878.071167,690.769409 1886.445435,708.133728 C1895.222900,726.334229 1900.940674,745.676025 1905.528198,765.335571 C1908.815186,779.422424 1910.989502,793.664490 1909.948853,808.159668 C1908.566772,827.410156 1893.432129,840.879272 1875.682251,841.152771 C1863.686646,841.337585 1853.581909,836.451111 1843.223145,831.736023 C1840.770020,830.619446 1838.232300,829.688965 1834.312744,828.095032 C1836.278687,834.924744 1838.086426,840.327332 1839.374512,845.850952 C1842.707397,860.142944 1846.252441,874.407227 1848.903931,888.831238 C1853.063477,911.460571 1851.136475,934.410583 1850.726807,957.179077 C1850.400146,975.333252 1845.603149,992.900208 1836.049072,1008.690063 C1826.589111,1024.323975 1813.508545,1034.313354 1794.271118,1034.010132 C1785.611816,1033.873779 1778.753540,1029.426758 1772.167480,1024.603760 C1766.643066,1020.558167 1761.527222,1015.958679 1756.124146,1011.740662 C1754.921387,1010.801514 1753.273560,1010.432373 1751.621216,1009.709106 C1750.709595,1016.691345 1749.927612,1023.249084 1748.985596,1029.783813 C1746.641602,1046.047119 1742.468994,1061.754272 1733.617432,1075.804932 C1729.301147,1082.656250 1724.892822,1089.560913 1719.652710,1095.695312 C1708.886719,1108.298706 1694.269287,1114.917358 1678.891968,1120.016602 C1676.307007,1120.873657 1673.596069,1121.351196 1670.085693,1121.976196 C1661.091675,1122.258057 1652.956299,1122.601807 1644.818115,1122.859741 C1641.901978,1122.952271 1638.979248,1122.837646 1636.059448,1122.817505 M1489.334229,612.843018 C1471.775391,622.302795 1456.132568,634.431213 1441.668213,648.015442 C1423.942017,664.663086 1407.112305,682.179932 1392.557739,701.768860 C1387.910522,708.023560 1387.649780,708.127502 1393.258911,713.653198 C1422.867432,742.821289 1447.608887,775.864807 1468.468018,811.604370 C1483.799072,837.872559 1497.222900,865.267639 1511.133667,892.347046 C1523.781494,916.968140 1534.257568,942.532532 1542.836670,968.866943 C1544.225220,973.129700 1545.488892,977.602539 1547.839722,981.328979 C1549.728638,984.323425 1552.783691,987.301697 1556.002441,988.604919 C1566.336914,992.789062 1577.383911,993.747742 1588.392822,992.787354 C1596.077393,992.117004 1603.260986,989.504395 1608.967163,983.662170 C1615.866577,976.598267 1618.211914,967.688477 1619.975464,958.462646 C1620.868042,953.792786 1621.702637,949.111755 1622.670410,943.855530 C1624.959961,944.686096 1626.626831,945.289734 1628.292725,945.895386 C1636.260376,948.792053 1644.063477,952.316162 1652.229126,954.457886 C1670.180786,959.166565 1685.710815,953.562561 1694.678101,939.280090 C1704.723999,923.279419 1707.160767,905.555664 1705.562378,886.987061 C1704.264160,871.905945 1699.816895,857.650513 1695.049561,843.435791 C1694.239502,841.020508 1693.794067,838.483093 1693.227051,836.191528 C1702.738159,836.845520 1711.644043,837.871155 1720.559326,837.960266 C1730.407227,838.058716 1737.827515,833.104736 1742.220947,824.402466 C1747.535400,813.875671 1747.276001,802.601074 1745.566895,791.236755 C1742.983154,774.056335 1735.049561,759.044861 1726.495850,744.337524 C1714.154785,723.118347 1698.356812,704.837952 1679.273315,689.327576 C1674.182495,685.190063 1669.875732,680.087952 1664.559937,674.780762 C1667.041626,673.743408 1668.644287,673.047485 1670.266479,672.400085 C1675.056274,670.488464 1679.935669,668.777588 1684.630615,666.657349 C1693.864624,662.487244 1697.536133,654.829285 1698.066284,645.053406 C1698.553589,636.069214 1695.018799,628.910950 1689.093506,622.571106 C1679.525513,612.333862 1667.234375,606.408447 1654.717529,600.891968 C1624.097412,587.396851 1591.994995,583.157349 1559.017090,587.456726 C1534.318848,590.676636 1511.322754,599.539612 1489.334229,612.843018 M221.470703,627.031799 C214.634094,635.483704 213.365158,644.505798 218.127563,654.478821 C222.486084,663.606079 231.082321,666.969788 239.328369,670.903137 C242.089859,672.220337 244.932297,673.367798 248.081680,674.743103 C246.977768,676.171753 246.467453,677.034058 245.770950,677.702332 C238.934982,684.261230 231.839645,690.566589 225.253662,697.366028 C207.125275,716.081787 190.413803,735.952332 179.033844,759.633850 C172.076767,774.111267 166.567352,789.247925 167.119110,805.618408 C167.547623,818.332214 171.264359,830.048279 184.580597,835.010071 C189.831711,836.966675 195.925217,837.198669 201.640396,837.229126 C207.856628,837.262207 214.078949,836.148499 220.797104,835.485535 C220.432938,837.166504 220.226135,838.425171 219.885117,839.646423 C217.468964,848.299438 214.621414,856.854919 212.672882,865.610962 C208.365921,884.964905 206.751099,904.424072 212.180267,923.914734 C217.763107,943.957092 233.949554,956.927490 254.567703,955.649170 C263.953186,955.067261 273.250793,951.352722 282.349396,948.338257 C291.519409,945.300110 291.198456,945.047119 293.037476,954.365723 C294.379120,961.164062 295.526611,968.433472 298.834503,974.329346 C308.483643,991.527344 327.300476,997.630066 347.794403,992.345032 C359.207397,989.401855 366.172943,983.490234 369.530579,971.776245 C373.280243,958.694519 378.598663,946.029541 383.720673,933.380066 C401.699371,888.979248 423.138702,846.304749 449.007660,805.963440 C468.617310,775.383240 489.693298,745.884583 515.395264,719.948608 C525.131470,710.123718 525.289062,707.429871 517.254272,695.923584 C504.032166,676.988770 488.008118,660.556152 470.816284,645.223511 C447.752045,624.653564 422.326080,607.887451 393.372589,596.675903 C373.495819,588.979004 352.740479,586.122375 331.685669,586.299072 C312.149689,586.463013 292.824432,589.582397 274.364075,596.237854 C255.146545,603.166443 237.081924,612.357788 221.470703,627.031799 M1043.729858,1081.770996 C1018.751953,1044.931763 985.494446,1025.723145 939.946838,1034.164917 C910.126404,1039.691772 886.286926,1054.682251 869.612366,1080.661499 C851.053589,1109.576416 840.360352,1141.353638 833.898682,1174.784180 C825.476379,1218.358521 822.970215,1262.307739 826.233826,1306.544556 C827.434753,1322.822876 829.132080,1339.213501 836.281494,1354.174194 C845.483459,1373.429443 857.377563,1390.933228 877.755066,1399.679810 C890.835449,1405.294189 904.678223,1409.481812 918.530518,1412.874634 C946.765930,1419.790649 975.092285,1417.101929 1003.254639,1411.559326 C1019.993591,1408.265015 1035.428711,1401.881348 1049.070557,1391.539429 C1064.571167,1379.788208 1072.046509,1362.924194 1077.688110,1345.128540 C1084.242310,1324.455444 1085.790283,1303.104980 1086.000610,1281.501953 C1086.401855,1240.265747 1085.060669,1199.239990 1074.863403,1158.997559 C1068.044556,1132.088135 1058.258057,1106.356567 1043.729858,1081.770996 M697.460754,1180.941528 C704.223999,1172.979614 709.782837,1164.476440 710.915466,1153.679443 C714.632507,1118.246460 684.751953,1089.710815 649.168152,1094.803833 C612.406677,1100.065430 592.672485,1141.808472 610.709412,1174.423584 C626.160278,1202.362183 673.102356,1211.771729 697.460754,1180.941528 M1295.367310,1181.825806 C1297.506470,1178.459961 1300.035156,1175.277710 1301.721558,1171.698608 C1312.445557,1148.939575 1305.672607,1119.958862 1286.505981,1105.820679 C1265.561157,1090.370728 1237.002319,1091.930054 1217.511597,1109.428467 C1192.188110,1132.163452 1197.214600,1171.153564 1219.370239,1189.284302 C1238.037720,1204.560669 1273.620850,1207.901855 1295.367310,1181.825806 z"/>
  <path fill="#404040" opacity="1.000000" stroke="none" d="M456.817017,356.975464 C461.782715,354.976044 466.592346,352.310272 471.743774,351.104065 C486.329254,347.688782 501.086487,345.015198 515.717407,341.783875 C537.432678,336.987915 559.079773,331.883820 580.788452,327.057281 C606.374451,321.368683 631.996399,315.841461 657.600647,310.234833 C684.985596,304.238312 712.385559,298.308746 739.747070,292.206879 C769.385803,285.597229 798.965454,278.721771 828.613647,272.155487 C847.929382,267.877594 867.338013,264.021118 886.672668,259.826630 C897.432678,257.492371 908.039307,254.350357 918.871216,252.473206 C933.487610,249.940231 948.198669,246.098038 963.104675,248.187698 C978.924438,250.405472 994.575806,253.897278 1010.240723,257.123962 C1023.285461,259.810944 1036.233765,262.963562 1049.242188,265.830566 C1066.314087,269.593109 1083.395874,273.311768 1100.486816,276.987213 C1122.285889,281.675140 1144.113281,286.231445 1165.899658,290.977478 C1181.135864,294.296539 1196.299561,297.949005 1211.538818,301.253418 C1231.604614,305.604370 1251.724976,309.703796 1271.799316,314.016327 C1289.874634,317.899353 1307.938477,321.839752 1325.972900,325.908386 C1346.320801,330.498901 1366.631348,335.255798 1386.955688,339.950409 C1397.531616,342.393250 1408.105835,344.843170 1418.674438,347.317322 C1426.654907,349.185608 1434.651489,350.995605 1442.587036,353.040497 C1445.720459,353.847900 1448.708130,355.221649 1451.562744,356.686188 C1448.920776,357.521515 1446.432007,357.845398 1444.043213,358.521912 C1430.931763,362.235107 1417.896851,366.228821 1404.738403,369.763947 C1377.912354,376.971100 1351.023926,383.947083 1324.091064,390.591949 C1323.171875,389.447327 1322.389404,388.210236 1321.463257,388.091217 C1312.578369,386.949585 1303.660278,386.069702 1294.768799,384.975800 C1269.476318,381.864197 1244.173340,378.829742 1218.908447,375.505463 C1172.516602,369.401306 1126.160645,363.023682 1079.767212,356.932465 C1053.194214,353.443604 1026.576782,350.294281 999.977051,346.589050 C999.657654,344.763092 999.715393,343.080872 998.947083,341.969940 C997.229492,339.486206 993.392944,339.717712 993.244629,342.219269 C992.959900,347.019501 989.698914,347.670959 986.192810,348.433350 C964.364746,353.179871 942.707092,354.139221 921.433716,345.679749 C919.689087,344.985962 917.806091,344.640167 915.987427,344.132690 C915.602783,344.530975 915.218140,344.929260 914.833557,345.327576 C916.542969,348.380615 917.508972,352.682770 920.113037,354.232727 C925.955200,357.710022 932.393555,360.741302 938.980591,362.297913 C953.480469,365.724396 968.238708,366.756470 982.710632,361.780060 C987.210815,360.232605 991.447205,357.918152 995.854126,356.353394 C997.135193,357.536804 998.283386,358.799927 999.610901,359.030548 C1009.784729,360.797852 1019.965820,362.566925 1030.196045,363.958313 C1075.741211,370.152740 1121.302124,376.233490 1166.860474,382.330750 C1194.593750,386.042450 1222.344727,389.623047 1250.063721,393.438232 C1261.421997,395.001556 1272.716553,397.028198 1283.770020,399.104248 C1282.424805,399.800446 1281.384033,400.376312 1280.269165,400.651733 C1259.278320,405.837250 1238.279785,410.991211 1217.280762,416.143433 C1186.263550,423.753632 1155.221313,431.262909 1124.234619,438.995239 C1101.470703,444.675720 1078.799805,450.727661 1056.048828,456.460938 C1035.085205,461.743774 1014.114258,467.011719 993.060425,471.916687 C981.278687,474.661499 969.330505,478.440247 957.442017,478.496155 C945.034729,478.554443 932.443970,475.385010 920.220764,472.435577 C874.125244,461.312653 828.156372,449.665894 782.121155,438.291779 C746.913757,429.593018 711.673096,421.029205 676.456238,412.368561 C647.376099,405.217163 618.301270,398.043610 589.238708,390.821198 C562.767334,384.242676 536.294800,377.666656 509.862274,370.934265 C492.144806,366.421600 474.496338,361.637909 456.817017,356.975464 z"/>
  <path fill="#3D3D3D" opacity="1.000000" stroke="none" d="M1257.914551,618.114502 C1256.754639,618.142761 1255.438232,617.818054 1254.458130,618.252380 C1239.910034,624.698547 1224.129028,623.726196 1208.884155,625.971375 C1174.073853,631.098083 1139.928223,639.228394 1106.142334,648.953552 C1060.007446,662.233215 1015.468872,679.865173 971.355652,698.614807 C962.153320,702.526123 953.604858,702.552673 944.499268,698.269226 C906.981384,680.620605 868.589355,665.088013 829.296631,651.829529 C781.203918,635.601807 732.304688,622.997864 681.477966,619.014954 C672.911621,618.343567 664.397766,617.000793 655.393677,615.910400 C654.925903,605.854431 654.462097,595.830017 655.032166,585.864685 C655.860168,571.390076 657.445618,556.959045 658.686646,542.507629 C659.637451,531.435425 660.399231,520.344360 661.538879,509.291962 C662.385254,501.084351 663.833130,492.940216 664.770203,484.740082 C665.559692,477.831604 666.014099,470.884338 666.590027,463.952057 C667.339905,454.927002 668.063293,445.899719 669.170471,436.429565 C670.693054,436.156036 671.865051,436.236572 672.990234,436.509796 C708.907410,445.232300 744.827820,453.941589 780.730591,462.723022 C804.995117,468.657898 829.231140,474.709137 853.484741,480.688751 C879.332886,487.061401 905.164490,493.503662 931.047791,499.730530 C943.496521,502.725372 956.085327,505.169434 968.929077,502.251709 C987.412903,498.052673 1005.913208,493.906830 1024.311035,489.352692 C1062.112061,479.995605 1099.824463,470.281067 1137.621582,460.907593 C1167.500000,453.497864 1197.435181,446.314392 1227.381592,439.183563 C1233.259399,437.783905 1239.304077,437.085266 1245.067749,436.397522 C1244.332153,438.618225 1243.509155,440.481262 1243.354980,442.398071 C1243.213745,444.151672 1243.830688,445.959137 1244.053589,447.750336 C1244.997070,455.337067 1245.791626,462.944977 1246.890625,470.508789 C1247.671387,475.882111 1249.179565,481.160522 1249.785034,486.546265 C1251.041138,497.719788 1251.811401,508.947113 1252.979858,520.131592 C1253.698120,527.006409 1254.899658,533.829712 1255.677612,540.699585 C1256.887207,551.380188 1258.002563,562.073181 1258.994507,572.776123 C1259.506348,578.298218 1260.092285,583.868591 1259.890625,589.389587 C1259.540283,598.975830 1258.604736,608.540710 1257.914551,618.114502 z"/>
  <path fill="#2B2B2B" opacity="1.000000" stroke="none" d="M1245.271851,436.063354 C1239.304077,437.085266 1233.259399,437.783905 1227.381592,439.183563 C1197.435181,446.314392 1167.500000,453.497864 1137.621582,460.907593 C1099.824463,470.281067 1062.112061,479.995605 1024.311035,489.352692 C1005.913208,493.906830 987.412903,498.052673 968.929077,502.251709 C956.085327,505.169434 943.496521,502.725372 931.047791,499.730530 C905.164490,493.503662 879.332886,487.061401 853.484741,480.688751 C829.231140,474.709137 804.995117,468.657898 780.730591,462.723022 C744.827820,453.941589 708.907410,445.232300 672.990234,436.509796 C671.865051,436.236572 670.693054,436.156036 669.099854,436.002014 C662.188477,434.257233 655.758240,432.338989 649.245178,430.763062 C625.458557,425.007629 601.612915,419.493805 577.852966,413.631622 C564.772949,410.404480 551.852539,406.535278 538.800293,403.189301 C524.362610,399.488098 509.804840,396.249359 495.396423,392.441956 C483.788300,389.374512 472.047821,386.479797 460.876587,382.181610 C450.230652,378.085541 448.382965,365.676788 456.493347,357.072021 C474.496338,361.637909 492.144806,366.421600 509.862274,370.934265 C536.294800,377.666656 562.767334,384.242676 589.238708,390.821198 C618.301270,398.043610 647.376099,405.217163 676.456238,412.368561 C711.673096,421.029205 746.913757,429.593018 782.121155,438.291779 C828.156372,449.665894 874.125244,461.312653 920.220764,472.435577 C932.443970,475.385010 945.034729,478.554443 957.442017,478.496155 C969.330505,478.440247 981.278687,474.661499 993.060425,471.916687 C1014.114258,467.011719 1035.085205,461.743774 1056.048828,456.460938 C1078.799805,450.727661 1101.470703,444.675720 1124.234619,438.995239 C1155.221313,431.262909 1186.263550,423.753632 1217.280762,416.143433 C1238.279785,410.991211 1259.278320,405.837250 1280.269165,400.651733 C1281.384033,400.376312 1282.424805,399.800446 1284.213379,399.081940 C1289.034912,399.214355 1293.153198,399.548370 1297.249390,400.058777 C1311.673828,401.856232 1309.098511,400.774200 1309.997314,413.752563 C1310.269165,417.677795 1308.828857,419.252686 1304.765869,419.234741 C1301.993408,419.761841 1299.105103,419.718475 1297.317383,421.099609 C1291.955200,425.242310 1285.274536,424.904785 1279.343628,427.016052 C1273.513428,429.091400 1267.161987,429.653137 1261.125122,431.211487 C1255.779419,432.591370 1250.551636,434.428223 1245.271851,436.063354 z"/>
  <path fill="#EDC459" opacity="1.000000" stroke="none" d="M1305.153076,419.315399 C1308.828857,419.252686 1310.269165,417.677795 1309.997314,413.752563 C1309.098511,400.774200 1311.673828,401.856232 1297.249390,400.058777 C1293.153198,399.548370 1289.034912,399.214355 1284.483398,398.821716 C1272.716553,397.028198 1261.421997,395.001556 1250.063721,393.438232 C1222.344727,389.623047 1194.593750,386.042450 1166.860474,382.330750 C1121.302124,376.233490 1075.741211,370.152740 1030.196045,363.958313 C1019.965820,362.566925 1009.784729,360.797852 999.610901,359.030548 C998.283386,358.799927 997.135193,357.536804 996.036011,356.037994 C997.438477,352.546722 998.708862,349.769409 999.979309,346.992096 C1026.576782,350.294281 1053.194214,353.443604 1079.767212,356.932465 C1126.160645,363.023682 1172.516602,369.401306 1218.908447,375.505463 C1244.173340,378.829742 1269.476318,381.864197 1294.768799,384.975800 C1303.660278,386.069702 1312.578369,386.949585 1321.463257,388.091217 C1322.389404,388.210236 1323.171875,389.447327 1324.028809,391.056122 C1324.104370,399.684601 1324.172241,407.422607 1324.240112,415.160583 C1324.161743,430.624847 1324.040527,446.089081 1324.015625,461.553436 C1323.980957,483.014130 1324.018799,504.474945 1324.085938,526.392334 C1324.140625,564.488159 1324.135010,602.127380 1323.859497,640.505127 C1319.062988,641.484680 1314.536377,641.725647 1310.009888,641.966675 C1309.986572,609.952454 1309.963379,577.938293 1309.956421,544.990967 C1309.972778,502.794922 1309.972778,461.532074 1309.972778,420.461700 C1308.014526,419.995972 1306.583862,419.655670 1305.153076,419.315399 z"/>
  <path fill="#2C2C2C" opacity="1.000000" stroke="none" d="M1324.606689,415.089752 C1324.172241,407.422607 1324.104370,399.684601 1324.098877,391.482452 C1351.023926,383.947083 1377.912354,376.971100 1404.738403,369.763947 C1417.896851,366.228821 1430.931763,362.235107 1444.043213,358.521912 C1446.432007,357.845398 1448.920776,357.521515 1451.786621,356.997223 C1457.317993,358.732178 1459.175781,362.540955 1459.070312,367.687897 C1458.959595,373.091553 1459.096191,378.764526 1452.638916,380.799988 C1439.273682,385.013031 1425.915649,389.307037 1412.377075,392.898865 C1390.652588,398.662506 1368.780396,403.868835 1346.978271,409.341522 C1339.631226,411.185760 1332.307495,413.123779 1324.606689,415.089752 z"/>
  <path fill="#E6E3DB" opacity="1.000000" stroke="none" d="M1489.661865,612.677612 C1511.322754,599.539612 1534.318848,590.676636 1559.017090,587.456726 C1591.994995,583.157349 1624.097412,587.396851 1654.717529,600.891968 C1667.234375,606.408447 1679.525513,612.333862 1689.093506,622.571106 C1695.018799,628.910950 1698.553589,636.069214 1698.066284,645.053406 C1697.536133,654.829285 1693.864624,662.487244 1684.630615,666.657349 C1679.935669,668.777588 1675.056274,670.488464 1670.266479,672.400085 C1668.644287,673.047485 1667.041626,673.743408 1664.559937,674.780762 C1669.875732,680.087952 1674.182495,685.190063 1679.273315,689.327576 C1698.356812,704.837952 1714.154785,723.118347 1726.495850,744.337524 C1735.049561,759.044861 1742.983154,774.056335 1745.566895,791.236755 C1747.276001,802.601074 1747.535400,813.875671 1742.220947,824.402466 C1737.827515,833.104736 1730.407227,838.058716 1720.559326,837.960266 C1711.644043,837.871155 1702.738159,836.845520 1693.227051,836.191528 C1693.794067,838.483093 1694.239502,841.020508 1695.049561,843.435791 C1699.816895,857.650513 1704.264160,871.905945 1705.562378,886.987061 C1707.160767,905.555664 1704.723999,923.279419 1694.678101,939.280090 C1685.710815,953.562561 1670.180786,959.166565 1652.229126,954.457886 C1644.063477,952.316162 1636.260376,948.792053 1628.292725,945.895386 C1626.626831,945.289734 1624.959961,944.686096 1622.670410,943.855530 C1621.702637,949.111755 1620.868042,953.792786 1619.975464,958.462646 C1618.211914,967.688477 1615.866577,976.598267 1608.967163,983.662170 C1603.260986,989.504395 1596.077393,992.117004 1588.392822,992.787354 C1577.383911,993.747742 1566.336914,992.789062 1556.002441,988.604919 C1552.783691,987.301697 1549.728638,984.323425 1547.839722,981.328979 C1545.488892,977.602539 1544.225220,973.129700 1542.836670,968.866943 C1534.257568,942.532532 1523.781494,916.968140 1511.133667,892.347046 C1497.222900,865.267639 1483.799072,837.872559 1468.468018,811.604370 C1447.608887,775.864807 1422.867432,742.821289 1393.258911,713.653198 C1387.649780,708.127502 1387.910522,708.023560 1392.557739,701.768860 C1407.112305,682.179932 1423.942017,664.663086 1441.668213,648.015442 C1456.132568,634.431213 1471.775391,622.302795 1489.661865,612.677612 z"/>
  <path fill="#E6E3DC" opacity="1.000000" stroke="none" d="M221.713593,626.766418 C237.081924,612.357788 255.146545,603.166443 274.364075,596.237854 C292.824432,589.582397 312.149689,586.463013 331.685669,586.299072 C352.740479,586.122375 373.495819,588.979004 393.372589,596.675903 C422.326080,607.887451 447.752045,624.653564 470.816284,645.223511 C488.008118,660.556152 504.032166,676.988770 517.254272,695.923584 C525.289062,707.429871 525.131470,710.123718 515.395264,719.948608 C489.693298,745.884583 468.617310,775.383240 449.007660,805.963440 C423.138702,846.304749 401.699371,888.979248 383.720673,933.380066 C378.598663,946.029541 373.280243,958.694519 369.530579,971.776245 C366.172943,983.490234 359.207397,989.401855 347.794403,992.345032 C327.300476,997.630066 308.483643,991.527344 298.834503,974.329346 C295.526611,968.433472 294.379120,961.164062 293.037476,954.365723 C291.198456,945.047119 291.519409,945.300110 282.349396,948.338257 C273.250793,951.352722 263.953186,955.067261 254.567703,955.649170 C233.949554,956.927490 217.763107,943.957092 212.180267,923.914734 C206.751099,904.424072 208.365921,884.964905 212.672882,865.610962 C214.621414,856.854919 217.468964,848.299438 219.885117,839.646423 C220.226135,838.425171 220.432938,837.166504 220.797104,835.485535 C214.078949,836.148499 207.856628,837.262207 201.640396,837.229126 C195.925217,837.198669 189.831711,836.966675 184.580597,835.010071 C171.264359,830.048279 167.547623,818.332214 167.119110,805.618408 C166.567352,789.247925 172.076767,774.111267 179.033844,759.633850 C190.413803,735.952332 207.125275,716.081787 225.253662,697.366028 C231.839645,690.566589 238.934982,684.261230 245.770950,677.702332 C246.467453,677.034058 246.977768,676.171753 248.081680,674.743103 C244.932297,673.367798 242.089859,672.220337 239.328369,670.903137 C231.082321,666.969788 222.486084,663.606079 218.127563,654.478821 C213.365158,644.505798 214.634094,635.483704 221.713593,626.766418 z"/>
  <path fill="#3F3F3F" opacity="1.000000" stroke="none" d="M1043.928101,1082.072754 C1058.258057,1106.356567 1068.044556,1132.088135 1074.863403,1158.997559 C1085.060669,1199.239990 1086.401855,1240.265747 1086.000610,1281.501953 C1085.790283,1303.104980 1084.242310,1324.455444 1077.688110,1345.128540 C1072.046509,1362.924194 1064.571167,1379.788208 1049.070557,1391.539429 C1035.428711,1401.881348 1019.993591,1408.265015 1003.254639,1411.559326 C975.092285,1417.101929 946.765930,1419.790649 918.530518,1412.874634 C904.678223,1409.481812 890.835449,1405.294189 877.755066,1399.679810 C857.377563,1390.933228 845.483459,1373.429443 836.281494,1354.174194 C829.132080,1339.213501 827.434753,1322.822876 826.233826,1306.544556 C822.970215,1262.307739 825.476379,1218.358521 833.898682,1174.784180 C840.360352,1141.353638 851.053589,1109.576416 869.612366,1080.661499 C886.286926,1054.682251 910.126404,1039.691772 939.946838,1034.164917 C985.494446,1025.723145 1018.751953,1044.931763 1043.928101,1082.072754 z"/>
  <path fill="#3E3E3E" opacity="1.000000" stroke="none" d="M697.214355,1181.199219 C673.102356,1211.771729 626.160278,1202.362183 610.709412,1174.423584 C592.672485,1141.808472 612.406677,1100.065430 649.168152,1094.803833 C684.751953,1089.710815 714.632507,1118.246460 710.915466,1153.679443 C709.782837,1164.476440 704.223999,1172.979614 697.214355,1181.199219 z"/>
  <path fill="#3E3D3D" opacity="1.000000" stroke="none" d="M1295.122314,1182.084717 C1273.620850,1207.901855 1238.037720,1204.560669 1219.370239,1189.284302 C1197.214600,1171.153564 1192.188110,1132.163452 1217.511597,1109.428467 C1237.002319,1091.930054 1265.561157,1090.370728 1286.505981,1105.820679 C1305.672607,1119.958862 1312.445557,1148.939575 1301.721558,1171.698608 C1300.035156,1175.277710 1297.506470,1178.459961 1295.122314,1182.084717 z"/>
  <path fill="#EDC459" opacity="1.000000" stroke="none" d="M1337.978516,668.987854 C1333.796509,689.845032 1343.436523,708.492065 1347.482544,728.022888 C1350.480103,742.492798 1355.378296,756.616760 1355.113647,771.655151 C1355.081909,773.459595 1355.109375,775.265137 1355.109375,778.320862 C1350.009766,775.854248 1345.663330,774.028259 1341.604370,771.700806 C1338.389526,769.857361 1335.889404,769.577454 1333.425537,772.760498 C1330.140747,777.003662 1326.493896,778.246582 1320.997559,775.808594 C1318.136353,774.539368 1313.631836,775.322693 1310.521240,776.676331 C1306.419556,778.461243 1303.442993,777.972473 1300.859863,774.817749 C1297.484009,770.694946 1294.178101,771.083252 1290.258545,774.004089 C1288.060181,775.642395 1285.406006,776.669006 1282.544678,778.190491 C1280.421387,772.008301 1278.271729,766.585388 1279.924438,760.318665 C1285.522705,739.089966 1290.502319,717.687500 1296.593872,696.604370 C1299.335205,687.116577 1299.208130,678.307007 1295.886841,669.294434 C1293.573853,663.018433 1293.262817,656.958252 1297.688477,651.475464 C1297.989014,653.698242 1297.823730,655.722839 1298.079224,657.692932 C1298.906250,664.073059 1298.824585,670.857422 1304.360352,675.536255 C1312.489502,682.407043 1323.620239,681.889038 1332.078613,674.360352 C1334.065186,672.592041 1336.012939,670.779846 1337.978516,668.987854 z"/>
  <path fill="#EDC459" opacity="1.000000" stroke="none" d="M1338.155029,668.615479 C1336.012939,670.779846 1334.065186,672.592041 1332.078613,674.360352 C1323.620239,681.889038 1312.489502,682.407043 1304.360352,675.536255 C1298.824585,670.857422 1298.906250,664.073059 1298.079224,657.692932 C1297.823730,655.722839 1297.989014,653.698242 1297.942871,651.218262 C1301.756470,647.931458 1305.588989,645.124939 1309.715698,642.142517 C1314.536377,641.725647 1319.062988,641.484680 1323.924927,640.947510 C1335.991577,647.023926 1340.754517,656.363220 1338.155029,668.615479 z"/>
  <path fill="#30302F" opacity="1.000000" stroke="none" d="M999.977051,346.589050 C998.708862,349.769409 997.438477,352.546722 995.986206,355.639465 C991.447205,357.918152 987.210815,360.232605 982.710632,361.780060 C968.238708,366.756470 953.480469,365.724396 938.980591,362.297913 C932.393555,360.741302 925.955200,357.710022 920.113037,354.232727 C917.508972,352.682770 916.542969,348.380615 914.833557,345.327576 C915.218140,344.929260 915.602783,344.530975 915.987427,344.132690 C917.806091,344.640167 919.689087,344.985962 921.433716,345.679749 C942.707092,354.139221 964.364746,353.179871 986.192810,348.433350 C989.698914,347.670959 992.959900,347.019501 993.244629,342.219269 C993.392944,339.717712 997.229492,339.486206 998.947083,341.969940 C999.715393,343.080872 999.657654,344.763092 999.977051,346.589050 z"/>
</svg>
